<svg xmlns="http://www.w3.org/2000/svg" viewBox="0 0 183.77 39.96"><defs><style>.cls-1{fill:#fff;}</style></defs><g id="Layer_2" data-name="Layer 2"><g id="Artwork"><path class="cls-1" d="M55,9.54H48.41a1,1,0,0,0-1,1V30.35a1,1,0,0,0,1,1h.84a1,1,0,0,0,1-1V23.88a.36.36,0,0,1,.36-.35H55a6.85,6.85,0,0,0,7-7A6.86,6.86,0,0,0,55,9.54Zm4.19,7A4,4,0,0,1,55,20.77H50.61a.36.36,0,0,1-.36-.36V12.65a.36.36,0,0,1,.36-.35H55A4,4,0,0,1,59.22,16.55Z"/><path class="cls-1" d="M71.68,17.25v-1a1,1,0,0,0-1-1,5.58,5.58,0,0,0-3.86,1.59v-.39a1,1,0,0,0-1-1H65a1,1,0,0,0-1,1V30.35a1,1,0,0,0,1,1h.75a1,1,0,0,0,1-1V22.56c0-4.33,3.25-4.66,4.25-4.66A.65.65,0,0,0,71.68,17.25Z"/><path class="cls-1" d="M87.16,15.4h-.79a1,1,0,0,0-1,1v.19a.35.35,0,0,1-.58.26,7.8,7.8,0,0,0-5.08-1.78,8.3,8.3,0,0,0,0,16.6,7.8,7.8,0,0,0,5.08-1.78.35.35,0,0,1,.58.26v.19a1,1,0,0,0,1,1h.79a1,1,0,0,0,1-1V16.41A1,1,0,0,0,87.16,15.4ZM79.83,29a5.6,5.6,0,1,1,5.54-5.6A5.53,5.53,0,0,1,79.83,29Z"/><path class="cls-1" d="M104.88,15.69a.65.65,0,0,0-.54-.29H103a1,1,0,0,0-.93.64L97.92,26.65a.36.36,0,0,1-.66,0L92.42,16a1,1,0,0,0-.91-.59H90.15a.66.66,0,0,0-.59.92L96.19,31l-.21.52c-.52,1.22-1.68,3.23-3.72,3a.69.69,0,0,0-.49.17.61.61,0,0,0-.21.47v1a1,1,0,0,0,1,1h0c2.53,0,4.82-1.85,6-4.93l6.33-16A.64.64,0,0,0,104.88,15.69Z"/><path class="cls-1" d="M113,15.08a8,8,0,0,0-8.24,8.3,8.06,8.06,0,0,0,8.36,8.3,7.81,7.81,0,0,0,6.94-3.63.65.65,0,0,0,.08-.49.64.64,0,0,0-.3-.4l-1.29-.76a.64.64,0,0,0-.9.25,4.94,4.94,0,0,1-4.5,2.33,5.35,5.35,0,0,1-5.34-3.74.35.35,0,0,1,.35-.45h11.71a1,1,0,0,0,1-.95h0c0-.13,0-.26,0-.39C120.88,19.39,118.12,15.08,113,15.08Zm-4.87,7a.35.35,0,0,1-.34-.44A5.18,5.18,0,0,1,113,17.78a5,5,0,0,1,4.88,3.84.36.36,0,0,1-.35.44Z"/><path class="cls-1" d="M129.64,15.21a5.58,5.58,0,0,0-3.86,1.59v-.39a1,1,0,0,0-1-1H124a1,1,0,0,0-1,1V30.35a1,1,0,0,0,1,1h.75a1,1,0,0,0,1-1V22.56c0-4.33,3.25-4.66,4.25-4.66a.65.65,0,0,0,.64-.65v-1A1,1,0,0,0,129.64,15.21Z"/><path class="cls-1" d="M24.46,7.26a7.09,7.09,0,0,0-.9.07c-3.79.61-6.37,2.93-7.86,7.11a29.51,29.51,0,0,0-1.38,8.75c7.59-.2,12.62-2.63,14.57-7.06a6.75,6.75,0,0,0-.48-6.93A4.87,4.87,0,0,0,24.46,7.26ZM22.71,19.62A13.14,13.14,0,0,1,18,21l-1.37.17.06-1.38a13.5,13.5,0,0,1,3.63-9A1.17,1.17,0,0,1,22,12.39a10.67,10.67,0,0,0-2.8,6,8.54,8.54,0,0,0,2.41-.81,1.17,1.17,0,1,1,1.15,2Z"/><path class="cls-1" d="M20,0A20,20,0,1,0,40,20,20,20,0,0,0,20,0ZM31.09,17.1c-1.67,3.77-5.94,8.24-16.81,8.49V26a40.49,40.49,0,0,0,.61,8.26,1.2,1.2,0,0,1-1,1.38h-.2a1.2,1.2,0,0,1-1.18-1,42.15,42.15,0,0,1-.64-8.68v-.36a23.71,23.71,0,0,1-6.19-1.22,1.2,1.2,0,0,1,.87-2.24,20.58,20.58,0,0,0,5.36,1.05,31.48,31.48,0,0,1,1.52-9.53c1.79-5,5.07-7.92,9.75-8.67a7.4,7.4,0,0,1,7.12,2.77A9.1,9.1,0,0,1,31.09,17.1Z"/><path class="cls-1" d="M144.8,28.6h-8.32a.36.36,0,0,1-.35-.36V10.54a1,1,0,0,0-1-1h-.85a1,1,0,0,0-1,1V30.35a1,1,0,0,0,1,1H144.8a1,1,0,0,0,1-1V29.6A1,1,0,0,0,144.8,28.6Z"/><path class="cls-1" d="M154.07,15.08a8.3,8.3,0,1,0,8.33,8.3A8.24,8.24,0,0,0,154.07,15.08Zm5.54,8.3a5.56,5.56,0,1,1-5.54-5.6A5.51,5.51,0,0,1,159.61,23.38Z"/><path class="cls-1" d="M171.3,9.2a6,6,0,0,0-4.47,1.39,6.15,6.15,0,0,0-1.74,4.67v.14h-1.52a1,1,0,0,0-1,1v.72a1,1,0,0,0,1,1h1.17a.36.36,0,0,1,.35.36V30.35a1,1,0,0,0,1,1h.78a1,1,0,0,0,1-1V18.49a.36.36,0,0,1,.36-.36h3a1,1,0,0,0,1-1v-.72a1,1,0,0,0-1-1h-3.37v-.14a3.51,3.51,0,0,1,.87-2.68,3.56,3.56,0,0,1,2.8-.66.67.67,0,0,0,.49-.17.68.68,0,0,0,.21-.48V10.2A1,1,0,0,0,171.3,9.2Z"/><path class="cls-1" d="M182.77,18.13a1,1,0,0,0,1-1v-.72a1,1,0,0,0-1-1h-3a.36.36,0,0,1-.36-.35V12a.64.64,0,0,0-.25-.52.65.65,0,0,0-.57-.1l-1.24.36a1,1,0,0,0-.72,1v2.4a.36.36,0,0,1-.36.35h-1.87a1,1,0,0,0-1,1v.72a1,1,0,0,0,1,1h1.87a.36.36,0,0,1,.36.36V27a4.37,4.37,0,0,0,1.31,3.52,4.81,4.81,0,0,0,3.26,1,11.92,11.92,0,0,0,1.71-.13,1,1,0,0,0,.87-1v-1a.64.64,0,0,0-.21-.48.62.62,0,0,0-.49-.16c-1.5.13-2.78.2-3.27-.25a2,2,0,0,1-.4-1.48V18.49a.36.36,0,0,1,.36-.36Z"/></g></g></svg>